<svg xmlns="http://www.w3.org/2000/svg" xmlns:xlink="http://www.w3.org/1999/xlink" width="1024" height="494" viewBox="0 0 1024 494">
<defs><clipPath id="b"><rect width="1024" height="494"/></clipPath></defs>
<g id="a" clip-path="url(#b)">
<path d="M1103.355,278.5a187.339,187.339,0,0,0-62.838,12.22c-54.1,20.373-105.179,21.252-181.6-33.015-37.247-26.452-84-39.4-133.1-39.4a243.472,243.472,0,0,0-161.1,60.626c-41.075,36.027-86.673,
29.038-136.147,29.038-78.5,0-154.695,64.374-154.695,149.812s69.256,159.584,154.695,159.584a122.528,122.528,0,0,0,18.9-1.065c48.6-7.576,83.1-.992,114.961,28.081,43.018,39.249,100.566,62.648,163.377,
62.648a241.408,241.408,0,0,0,135.165-40.76c49.6-33.344,115.252-51.359,183.737-30.024,19.62,6.113,40.235,10.622,61.967,10.622,102.6,0,185.611-83.893,184.176-186.824-1.411-101.5-86.012-183.343-187.513-181.541" 
transform="translate(-269.886 -215.301)" 
fill="#ff671d"/>
</g>
</svg>